<?xml version="1.0" standalone="no"?>
<!DOCTYPE svg PUBLIC "-//W3C//DTD SVG 20010904//EN"
 "http://www.w3.org/TR/2001/REC-SVG-20010904/DTD/svg10.dtd">
<svg version="1.0" xmlns="http://www.w3.org/2000/svg"
 width="1374.000000pt" height="1374.000000pt" viewBox="0 0 1374.000000 1374.000000"
 preserveAspectRatio="xMidYMid meet">
<metadata>
Created by potrace 1.11, written by Peter Selinger 2001-2013
</metadata>
<g transform="translate(0.000000,1374.000000) scale(0.100000,-0.100000)"
fill="#000000" stroke="none">
<path d="M6771 13710 c-25 -5 -78 -25 -119 -45 -72 -34 -101 -62 -960 -920
l-885 -885 -1243 0 c-869 0 -1259 -3 -1296 -11 -188 -39 -347 -198 -387 -387
-8 -38 -11 -416 -11 -1296 l0 -1243 -879 -879 c-699 -699 -885 -891 -912 -939
-18 -33 -35 -64 -36 -70 -1 -5 -9 -35 -18 -65 -32 -116 -7 -270 62 -380 23
-35 350 -370 909 -929 l874 -874 1 -1244 c1 -683 2 -1246 3 -1250 1 -5 5 -26
10 -48 26 -129 133 -265 258 -327 40 -20 100 -41 132 -47 41 -8 457 -11 1291
-11 l1232 0 889 -888 c873 -873 890 -890 968 -928 l80 -39 141 0 141 0 80 39
c77 39 96 57 968 928 l889 888 1241 0 c1096 0 1248 2 1301 16 174 46 314 189
359 365 14 59 16 193 16 1301 l0 1235 879 879 c559 560 891 899 913 934 56 89
73 150 72 270 -1 91 -4 114 -29 175 -15 39 -44 90 -63 115 -20 25 -426 436
-904 914 l-868 869 0 1238 c0 865 -3 1254 -11 1291 -39 186 -199 347 -384 387
-34 7 -455 10 -1291 11 l-1241 0 -874 873 c-481 481 -894 887 -919 904 -99 67
-261 98 -379 73z"/>
</g>
</svg>
